<svg width="33" height="29" viewBox="0 0 33 29" fill="none" xmlns="http://www.w3.org/2000/svg">
<path d="M30.7202 1.64041L22.1526 4.48581L18.7727 5.6072L18.5972 8.1539C18.586 8.23163 18.5533 8.3047 18.5029 8.36488C18.4524 8.42505 18.3862 8.46995 18.3116 8.49451L15.6915 9.36962C15.6225 9.39217 15.5489 9.39676 15.4776 9.38296C15.4064 9.36916 15.3398 9.33743 15.2842 9.29075C15.2286 9.24407 15.1859 9.184 15.1599 9.1162C15.134 9.04839 15.1258 8.9751 15.1361 8.90324L15.2382 6.78623L18.7727 5.6072L8.49156 9.01329C3.42959 10.7059 0.432224 16.3049 2.07763 21.3931C2.85022 23.7959 4.51897 25.8085 6.73707 27.0128C8.95517 28.217 11.552 28.5203 13.9879 27.8594C16.4238 27.1986 18.5113 25.6245 19.8167 23.4644C21.122 21.3043 21.5448 18.7242 20.9972 16.2604C20.8013 15.3882 20.4884 14.5466 20.067 13.7582C19.953 13.544 19.8874 13.3074 19.8748 13.0651C19.8622 12.8227 19.903 12.5806 19.9942 12.3557C20.0854 12.1309 20.2248 11.9287 20.4026 11.7636C20.5805 11.5985 20.7924 11.4745 21.0234 11.4002H21.0574C22.1055 11.0831 23.722 10.546 24.7727 10.2002L28.4932 8.89014C28.4932 8.89014 31.7866 7.80543 31.8993 2.52337C31.9065 2.3781 31.8779 2.23327 31.8161 2.10162C31.7542 1.96997 31.661 1.85552 31.5446 1.76833C31.4282 1.68114 31.2921 1.62387 31.1484 1.60157C31.0046 1.57926 30.8576 1.5926 30.7202 1.64041Z" stroke="#001863" stroke-width="1.31004" stroke-miterlimit="10"/>
</svg>
