<svg width="172" height="47" viewBox="0 0 172 47" fill="none" xmlns="http://www.w3.org/2000/svg">
<path d="M53.9756 35.6893C53.5323 35.6893 53.1828 35.604 52.9271 35.4335C52.6714 35.2631 52.4839 35.067 52.3645 34.8454C52.2622 34.6238 52.194 34.4703 52.1599 34.3851L47.3524 20.4482C47.1307 19.7322 47.0967 19.2037 47.2501 18.8628C47.4035 18.5048 47.8468 18.2064 48.5798 17.9677C49.0572 17.8143 49.4408 17.7461 49.7306 17.7632C50.0375 17.7802 50.2846 17.8996 50.4722 18.1212C50.6768 18.3428 50.8558 18.6923 51.0092 19.1696L54.2057 28.6569L56.8908 19.2975C56.9419 19.127 57.0187 18.931 57.1209 18.7093C57.2403 18.4877 57.4278 18.2917 57.6835 18.1212C57.9393 17.9507 58.2973 17.8655 58.7576 17.8655C59.2861 17.8655 59.6782 17.9592 59.9339 18.1468C60.2067 18.3343 60.3942 18.5389 60.4965 18.7605C60.5988 18.9821 60.6755 19.1526 60.7266 19.2719L63.4373 28.7081L66.6082 19.1952C66.7616 18.7179 66.9321 18.3684 67.1197 18.1468C67.3242 17.9081 67.58 17.7717 67.8868 17.7376C68.2107 17.7035 68.6114 17.7717 69.0887 17.9422C69.6002 18.1297 69.9582 18.3258 70.1627 18.5303C70.3673 18.7349 70.4696 18.9906 70.4696 19.2975C70.4867 19.5873 70.427 19.9709 70.2906 20.4482L65.483 34.3851C65.4489 34.4874 65.3722 34.6493 65.2529 34.8709C65.1506 35.0755 64.9716 35.2631 64.7159 35.4335C64.4772 35.604 64.1192 35.6893 63.6418 35.6893C63.1815 35.6893 62.815 35.587 62.5422 35.3824C62.2695 35.1778 62.0734 34.9647 61.9541 34.7431C61.8518 34.5044 61.7836 34.3425 61.7495 34.2572L58.8087 24.7188L55.8679 34.2572C55.8509 34.3425 55.7827 34.5044 55.6633 34.7431C55.544 34.9818 55.3479 35.2034 55.0752 35.408C54.8194 35.5955 54.4529 35.6893 53.9756 35.6893ZM76.6021 35.9706C75.4088 35.9706 74.3774 35.7745 73.5079 35.3824C72.6555 34.9903 71.9565 34.4788 71.411 33.8481C70.8654 33.2002 70.4563 32.4842 70.1835 31.7C69.9278 30.9158 69.7999 30.1316 69.7999 29.3474C69.7999 28.0688 70.0898 26.9351 70.6694 25.9463C71.249 24.9575 72.0503 24.1818 73.0732 23.6192C74.0961 23.0396 75.2724 22.7497 76.6021 22.7497C77.5909 22.7497 78.4433 22.9117 79.1594 23.2356C79.8924 23.5425 80.4891 23.9516 80.9494 24.4631C81.4268 24.9575 81.7762 25.4945 81.9979 26.0741C82.2365 26.6538 82.3559 27.2078 82.3559 27.7363C82.3559 28.674 82.1257 29.3729 81.6654 29.8332C81.2222 30.2765 80.6511 30.4981 79.9521 30.4981H73.8659C73.9 30.9414 74.0534 31.3164 74.3262 31.6233C74.616 31.9302 74.974 32.1688 75.4002 32.3393C75.8265 32.5098 76.2782 32.595 76.7556 32.595C77.1647 32.595 77.5227 32.578 77.8296 32.5439C78.1365 32.4927 78.4007 32.4331 78.6223 32.3649C78.844 32.2796 79.0485 32.2029 79.2361 32.1347C79.4236 32.0495 79.5856 31.9813 79.7219 31.9302C79.8754 31.879 80.0203 31.8449 80.1567 31.8279C80.4124 31.8108 80.6425 31.8875 80.8471 32.058C81.0687 32.2114 81.2648 32.4501 81.4353 32.774C81.5546 32.9616 81.6313 33.1406 81.6654 33.311C81.7166 33.4815 81.7421 33.652 81.7421 33.8225C81.7421 34.2316 81.529 34.5982 81.1028 34.9221C80.6937 35.246 80.1055 35.5017 79.3384 35.6893C78.5882 35.8768 77.6762 35.9706 76.6021 35.9706ZM73.8659 28.4012H77.9063C78.1791 28.4012 78.3751 28.3586 78.4945 28.2733C78.6309 28.171 78.6991 27.9835 78.6991 27.7107C78.6991 27.4039 78.6053 27.1396 78.4178 26.918C78.2302 26.6793 77.9745 26.5003 77.6506 26.381C77.3437 26.2446 76.9857 26.1764 76.5766 26.1764C76.0481 26.1764 75.5793 26.2787 75.1701 26.4833C74.7609 26.6879 74.437 26.9606 74.1984 27.3016C73.9767 27.6425 73.8659 28.0091 73.8659 28.4012Z" fill="#67EE9F"/>
<path d="M90.286 35.6893C89.8428 35.6893 89.4933 35.604 89.2376 35.4335C88.9819 35.2631 88.7943 35.067 88.675 34.8454C88.5727 34.6238 88.5045 34.4703 88.4704 34.3851L83.6629 20.4482C83.4412 19.7322 83.4071 19.2037 83.5606 18.8628C83.714 18.5048 84.1573 18.2064 84.8903 17.9677C85.3677 17.8143 85.7512 17.7461 86.0411 17.7632C86.3479 17.7802 86.5951 17.8996 86.7827 18.1212C86.9872 18.3428 87.1662 18.6923 87.3197 19.1696L90.5162 28.6569L93.2013 19.2975C93.2524 19.127 93.3291 18.931 93.4314 18.7093C93.5508 18.4877 93.7383 18.2917 93.994 18.1212C94.2497 17.9507 94.6077 17.8655 95.068 17.8655C95.5965 17.8655 95.9886 17.9592 96.2444 18.1468C96.5171 18.3343 96.7047 18.5389 96.807 18.7605C96.9092 18.9821 96.986 19.1526 97.0371 19.2719L99.7477 28.7081L102.919 19.1952C103.072 18.7179 103.243 18.3684 103.43 18.1468C103.635 17.9081 103.89 17.7717 104.197 17.7376C104.521 17.7035 104.922 17.7717 105.399 17.9422C105.911 18.1297 106.269 18.3258 106.473 18.5303C106.678 18.7349 106.78 18.9906 106.78 19.2975C106.797 19.5873 106.737 19.9709 106.601 20.4482L101.794 34.3851C101.759 34.4874 101.683 34.6493 101.563 34.8709C101.461 35.0755 101.282 35.2631 101.026 35.4335C100.788 35.604 100.43 35.6893 99.9523 35.6893C99.492 35.6893 99.1255 35.587 98.8527 35.3824C98.58 35.1778 98.3839 34.9647 98.2646 34.7431C98.1623 34.5044 98.0941 34.3425 98.06 34.2572L95.1192 24.7188L92.1784 34.2572C92.1613 34.3425 92.0931 34.5044 91.9738 34.7431C91.8545 34.9818 91.6584 35.2034 91.3857 35.408C91.1299 35.5955 90.7634 35.6893 90.286 35.6893ZM110.184 35.7404C109.571 35.7404 109.127 35.6552 108.855 35.4847C108.582 35.2972 108.411 35.0585 108.343 34.7687C108.292 34.4618 108.266 34.1379 108.266 33.7969V19.0673C108.266 18.7264 108.301 18.411 108.369 18.1212C108.437 17.8314 108.607 17.6012 108.88 17.4307C109.153 17.2432 109.596 17.1494 110.21 17.1494C110.841 17.1494 111.284 17.2432 111.54 17.4307C111.812 17.6183 111.974 17.8569 112.026 18.1468C112.094 18.4366 112.128 18.752 112.128 19.0929V24.3096C112.435 23.9857 112.827 23.6789 113.304 23.389C113.799 23.0992 114.378 22.9543 115.043 22.9543C116.1 22.9543 117.046 23.2271 117.882 23.7726C118.734 24.3011 119.407 25.0342 119.902 25.9718C120.413 26.9095 120.669 27.9835 120.669 29.1939V33.8225C120.669 34.1635 120.635 34.4788 120.567 34.7687C120.498 35.0585 120.337 35.2972 120.081 35.4847C119.825 35.6552 119.373 35.7404 118.725 35.7404C118.129 35.7404 117.686 35.6552 117.396 35.4847C117.123 35.2972 116.952 35.0585 116.884 34.7687C116.833 34.4618 116.808 34.1379 116.808 33.7969V29.1684C116.808 28.674 116.722 28.2563 116.552 27.9153C116.381 27.5573 116.126 27.276 115.785 27.0714C115.461 26.8669 115.06 26.7646 114.583 26.7646C113.952 26.7646 113.398 26.9606 112.921 27.3527C112.46 27.7278 112.196 28.1881 112.128 28.7336V33.8225C112.128 34.1635 112.094 34.4788 112.026 34.7687C111.957 35.0585 111.787 35.2972 111.514 35.4847C111.258 35.6552 110.815 35.7404 110.184 35.7404ZM124.574 35.7404C123.943 35.7404 123.492 35.6552 123.219 35.4847C122.963 35.2972 122.801 35.0585 122.733 34.7687C122.682 34.4618 122.656 34.1464 122.656 33.8225V24.8978C122.656 24.5568 122.682 24.2415 122.733 23.9516C122.801 23.6618 122.972 23.4317 123.244 23.2612C123.517 23.0737 123.969 22.9799 124.6 22.9799C125.213 22.9799 125.648 23.0737 125.904 23.2612C126.177 23.4487 126.339 23.6874 126.39 23.9772C126.458 24.267 126.492 24.5909 126.492 24.9489V33.8481C126.492 34.172 126.458 34.4874 126.39 34.7942C126.339 35.0841 126.177 35.3142 125.904 35.4847C125.648 35.6552 125.205 35.7404 124.574 35.7404ZM124.574 21.1131C123.926 21.1131 123.466 21.0194 123.193 20.8318C122.92 20.6443 122.75 20.3971 122.682 20.0902C122.631 19.7834 122.605 19.4595 122.605 19.1185C122.605 18.7605 122.639 18.4366 122.707 18.1468C122.776 17.8399 122.946 17.6012 123.219 17.4307C123.492 17.2432 123.952 17.1494 124.6 17.1494C125.23 17.1494 125.682 17.2432 125.955 17.4307C126.228 17.6183 126.39 17.8655 126.441 18.1723C126.509 18.4792 126.543 18.8031 126.543 19.1441C126.543 19.485 126.509 19.8089 126.441 20.1158C126.39 20.4227 126.228 20.6699 125.955 20.8574C125.682 21.0279 125.222 21.1131 124.574 21.1131ZM133.325 35.945C132.864 35.945 132.361 35.8938 131.816 35.7915C131.287 35.6893 130.767 35.5444 130.256 35.3568C129.745 35.1522 129.318 34.9221 128.977 34.6664C128.636 34.3936 128.44 34.0867 128.389 33.7458C128.355 33.5753 128.355 33.3963 128.389 33.2088C128.44 33.0042 128.526 32.7996 128.645 32.595C128.764 32.3734 128.909 32.1433 129.08 31.9046C129.216 31.717 129.369 31.5977 129.54 31.5466C129.71 31.4954 129.906 31.5039 130.128 31.5721C130.401 31.6233 130.674 31.717 130.946 31.8534C131.236 31.9728 131.518 32.1092 131.79 32.2626C132.08 32.399 132.378 32.5268 132.685 32.6462C132.992 32.7485 133.308 32.7996 133.631 32.7996C134.109 32.7996 134.475 32.7314 134.731 32.595C135.004 32.4416 135.14 32.237 135.14 31.9813C135.14 31.7938 135.081 31.6403 134.961 31.521C134.859 31.4017 134.706 31.2994 134.501 31.2141C134.313 31.1118 134.092 31.0266 133.836 30.9584C133.58 30.8902 133.299 30.822 132.992 30.7538C132.702 30.6686 132.404 30.5833 132.097 30.4981C131.671 30.3788 131.262 30.2253 130.87 30.0378C130.478 29.8503 130.12 29.6116 129.796 29.3218C129.472 29.0149 129.216 28.6484 129.028 28.2222C128.841 27.7789 128.747 27.2419 128.747 26.6111C128.747 25.7758 128.943 25.0768 129.335 24.5142C129.727 23.9516 130.299 23.5254 131.049 23.2356C131.799 22.9287 132.711 22.7753 133.785 22.7753C134.092 22.7753 134.399 22.7924 134.706 22.8265C135.012 22.8606 135.311 22.9202 135.601 23.0055C135.907 23.0907 136.206 23.193 136.496 23.3123C136.785 23.4317 137.075 23.5766 137.365 23.7471C137.876 23.9857 138.141 24.3096 138.158 24.7188C138.175 25.128 138.03 25.5456 137.723 25.9718C137.535 26.2617 137.339 26.4748 137.135 26.6111C136.93 26.7305 136.717 26.7646 136.496 26.7134C136.223 26.6452 135.924 26.5344 135.601 26.381C135.294 26.2276 134.961 26.0826 134.603 25.9463C134.262 25.8099 133.921 25.7417 133.58 25.7417C133.291 25.7417 133.043 25.7843 132.839 25.8695C132.634 25.9377 132.481 26.04 132.378 26.1764C132.276 26.2957 132.225 26.4407 132.225 26.6111C132.225 26.8328 132.285 27.0118 132.404 27.1482C132.54 27.2675 132.719 27.3698 132.941 27.455C133.163 27.5403 133.418 27.617 133.708 27.6852C133.998 27.7534 134.313 27.8216 134.654 27.8897C135.115 27.975 135.583 28.0943 136.061 28.2478C136.555 28.3841 136.998 28.5887 137.391 28.8615C137.8 29.1343 138.124 29.5008 138.362 29.9611C138.618 30.4214 138.746 31.0266 138.746 31.7767C138.746 33.1235 138.277 34.1549 137.339 34.8709C136.402 35.587 135.064 35.945 133.325 35.945ZM146.606 35.7404C145.737 35.7404 144.987 35.6466 144.356 35.4591C143.742 35.2716 143.231 34.9818 142.822 34.5897C142.413 34.1975 142.106 33.7032 141.901 33.1065C141.714 32.4927 141.62 31.7682 141.62 30.9328V20.5505C141.62 20.2096 141.645 19.9027 141.696 19.6299C141.765 19.3572 141.935 19.1355 142.208 18.9651C142.481 18.7775 142.924 18.6838 143.538 18.6838C144.151 18.6838 144.595 18.7775 144.867 18.9651C145.14 19.1526 145.302 19.3913 145.353 19.6811C145.422 19.9709 145.456 20.2863 145.456 20.6273V30.7794C145.456 31.0522 145.473 31.2823 145.507 31.4699C145.558 31.6403 145.626 31.7682 145.711 31.8534C145.797 31.9387 145.916 31.9983 146.069 32.0324C146.223 32.0665 146.41 32.0836 146.632 32.0836C147.007 32.0836 147.339 32.1177 147.629 32.1859C147.919 32.2541 148.141 32.4075 148.294 32.6462C148.465 32.8848 148.55 33.2855 148.55 33.8481C148.55 34.4618 148.456 34.905 148.269 35.1778C148.081 35.4506 147.834 35.6125 147.527 35.6637C147.237 35.7148 146.93 35.7404 146.606 35.7404ZM140.827 23.1589H143.64L147.169 23.0566C147.493 23.0566 147.8 23.0907 148.09 23.1589C148.379 23.21 148.618 23.372 148.806 23.6448C148.993 23.9175 149.087 24.3693 149.087 25.0001C149.087 25.5797 148.993 26.0059 148.806 26.2787C148.635 26.5515 148.405 26.7305 148.115 26.8157C147.825 26.8839 147.51 26.918 147.169 26.918L143.819 26.8413H140.725C140.23 26.8242 139.881 26.6793 139.676 26.4066C139.489 26.1167 139.395 25.6394 139.395 24.9745C139.395 24.3608 139.514 23.909 139.753 23.6192C139.992 23.3123 140.35 23.1589 140.827 23.1589ZM155.458 35.7404C154.759 35.7404 154.136 35.6978 153.591 35.6125C153.062 35.5444 152.602 35.408 152.21 35.2034C151.835 34.9988 151.528 34.7175 151.289 34.3595C151.051 34.0015 150.872 33.5412 150.752 32.9786C150.65 32.399 150.599 31.6915 150.599 30.8561V19.0418C150.599 18.7008 150.625 18.3854 150.676 18.0956C150.744 17.8058 150.914 17.5671 151.187 17.3796C151.46 17.1921 151.903 17.0983 152.517 17.0983C153.131 17.0983 153.565 17.1921 153.821 17.3796C154.094 17.5671 154.264 17.8058 154.333 18.0956C154.401 18.3854 154.435 18.7008 154.435 19.0418V30.6771C154.435 30.9499 154.443 31.18 154.46 31.3676C154.494 31.538 154.546 31.6744 154.614 31.7767C154.699 31.879 154.81 31.9472 154.946 31.9813C155.083 32.0154 155.262 32.0324 155.483 32.0324C155.688 32.0324 155.892 32.058 156.097 32.1092C156.319 32.1603 156.506 32.3137 156.66 32.5695C156.813 32.8252 156.89 33.2514 156.89 33.8481C156.89 34.4618 156.813 34.905 156.66 35.1778C156.506 35.4506 156.319 35.6125 156.097 35.6637C155.892 35.7148 155.679 35.7404 155.458 35.7404ZM164.581 35.9706C163.388 35.9706 162.357 35.7745 161.487 35.3824C160.635 34.9903 159.936 34.4788 159.39 33.8481C158.845 33.2002 158.436 32.4842 158.163 31.7C157.907 30.9158 157.779 30.1316 157.779 29.3474C157.779 28.0688 158.069 26.9351 158.649 25.9463C159.228 24.9575 160.03 24.1818 161.052 23.6192C162.075 23.0396 163.252 22.7497 164.581 22.7497C165.57 22.7497 166.423 22.9117 167.139 23.2356C167.872 23.5425 168.468 23.9516 168.929 24.4631C169.406 24.9575 169.755 25.4945 169.977 26.0741C170.216 26.6538 170.335 27.2078 170.335 27.7363C170.335 28.674 170.105 29.3729 169.645 29.8332C169.201 30.2765 168.63 30.4981 167.931 30.4981H161.845C161.879 30.9414 162.033 31.3164 162.305 31.6233C162.595 31.9302 162.953 32.1688 163.379 32.3393C163.806 32.5098 164.257 32.595 164.735 32.595C165.144 32.595 165.502 32.578 165.809 32.5439C166.116 32.4927 166.38 32.4331 166.602 32.3649C166.823 32.2796 167.028 32.2029 167.215 32.1347C167.403 32.0495 167.565 31.9813 167.701 31.9302C167.855 31.879 168 31.8449 168.136 31.8279C168.392 31.8108 168.622 31.8875 168.826 32.058C169.048 32.2114 169.244 32.4501 169.415 32.774C169.534 32.9616 169.611 33.1406 169.645 33.311C169.696 33.4815 169.721 33.652 169.721 33.8225C169.721 34.2316 169.508 34.5982 169.082 34.9221C168.673 35.246 168.085 35.5017 167.318 35.6893C166.567 35.8768 165.655 35.9706 164.581 35.9706ZM161.845 28.4012H165.886C166.158 28.4012 166.354 28.3586 166.474 28.2733C166.61 28.171 166.678 27.9835 166.678 27.7107C166.678 27.4039 166.585 27.1396 166.397 26.918C166.209 26.6793 165.954 26.5003 165.63 26.381C165.323 26.2446 164.965 26.1764 164.556 26.1764C164.027 26.1764 163.559 26.2787 163.149 26.4833C162.74 26.6879 162.416 26.9606 162.178 27.3016C161.956 27.6425 161.845 28.0091 161.845 28.4012Z" fill="#001863"/>
<path d="M26.5413 18.1984L30.0967 17.0167L19.8182 20.4228C14.7457 22.1101 11.7562 27.7066 13.3937 32.7948C14.1616 35.2024 15.829 37.2209 18.0484 38.4294C20.2678 39.6379 22.868 39.9433 25.307 39.2819C27.7461 38.6204 29.8357 37.0432 31.1405 34.8789C32.4452 32.7147 32.8644 30.1304 32.3107 27.6647C32.1157 26.7918 31.8037 25.9493 31.3831 25.1599C31.2696 24.9458 31.2042 24.7094 31.1917 24.4673C31.1792 24.2253 31.2198 23.9834 31.3107 23.7587C31.4015 23.534 31.5405 23.3319 31.7178 23.1666C31.8951 23.0013 32.1064 22.8768 32.3369 22.8018H32.3709C33.4189 22.4874 35.0355 21.9477 36.0862 21.6045L39.8093 20.2944C39.8093 20.2944 43.1027 19.2071 43.1997 13.9277C43.2029 13.7858 43.1721 13.6451 43.1097 13.5176C43.0474 13.39 42.9555 13.2793 42.8415 13.1946C42.7276 13.1099 42.595 13.0538 42.4549 13.0309C42.3148 13.008 42.1713 13.019 42.0364 13.063L33.4661 15.898L30.0967 17.0167" fill="#3CF788"/>
<path d="M20.1985 13.2568L21.4247 14.7974L20.1985 13.2568Z" fill="#25E976"/>
<path d="M19.7817 13.6735L21.0079 15.2141C21.1186 15.3242 21.2683 15.3863 21.4245 15.3871C21.5813 15.3859 21.7316 15.3239 21.8437 15.2141C21.9511 15.1022 22.0104 14.9527 22.0087 14.7975L21.9878 14.6403C21.9617 14.5415 21.9102 14.4512 21.8384 14.3783L20.6096 12.8377C20.5551 12.7827 20.4902 12.7391 20.4187 12.7094C20.3472 12.6798 20.2705 12.6646 20.193 12.6648C20.0367 12.6648 19.8867 12.7269 19.7762 12.8375C19.6656 12.948 19.6035 13.098 19.6035 13.2543L19.6245 13.4115C19.6516 13.5106 19.7039 13.6008 19.7764 13.6735H19.7817Z" fill="#001863"/>
<path d="M23.9894 9.94019L24.9274 13.3672L23.9894 9.94019Z" fill="#25E976"/>
<path d="M23.4209 10.0972L24.3667 13.5242C24.3874 13.5989 24.4225 13.6688 24.4702 13.7299C24.5178 13.7909 24.577 13.842 24.6444 13.8802C24.7118 13.9184 24.7861 13.943 24.8629 13.9525C24.9398 13.962 25.0178 13.9562 25.0925 13.9356C25.1671 13.915 25.237 13.8798 25.2981 13.8322C25.3592 13.7845 25.4103 13.7253 25.4485 13.6579C25.4867 13.5905 25.5112 13.5163 25.5207 13.4394C25.5302 13.3625 25.5245 13.2845 25.5038 13.2098L24.558 9.78278C24.5373 9.70812 24.5022 9.63825 24.4545 9.57717C24.4069 9.51609 24.3477 9.46499 24.2803 9.4268C24.2129 9.3886 24.1386 9.36405 24.0618 9.35455C23.9849 9.34505 23.9069 9.35079 23.8322 9.37143C23.7576 9.39207 23.6877 9.42722 23.6266 9.47487C23.5655 9.52251 23.5144 9.58172 23.4762 9.64912C23.438 9.71651 23.4135 9.79077 23.404 9.86765C23.3945 9.94453 23.4002 10.0225 23.4209 10.0972Z" fill="#001863"/>
<path d="M28.2969 12.7724C28.3541 12.0981 28.4521 11.4278 28.5903 10.7654L28.2969 12.7724Z" fill="#25E976"/>
<path d="M28.8812 12.7725C28.9048 12.5104 28.9336 12.2301 28.9703 11.9576L28.9493 12.1148C29.0043 11.7166 29.0725 11.3288 29.1537 10.9227C29.1742 10.848 29.1797 10.7701 29.1701 10.6932C29.1604 10.6164 29.1357 10.5423 29.0974 10.475C29.0591 10.4077 29.0079 10.3487 28.9467 10.3012C28.8856 10.2537 28.8157 10.2187 28.741 10.1982C28.6664 10.1778 28.5884 10.1722 28.5116 10.1819C28.4348 10.1915 28.3606 10.2162 28.2933 10.2545C28.2261 10.2928 28.167 10.344 28.1195 10.4052C28.072 10.4663 28.037 10.5362 28.0166 10.6109C27.8699 11.3247 27.7649 12.0464 27.7022 12.7725C27.7016 12.8499 27.7167 12.9267 27.7464 12.9983C27.7761 13.0698 27.8199 13.1347 27.8751 13.189C27.9859 13.2991 28.1355 13.3613 28.2917 13.362C28.4468 13.358 28.5944 13.2946 28.7041 13.1849C28.8138 13.0752 28.8772 12.9275 28.8812 12.7725Z" fill="#001863"/>
<path d="M39.7202 11.6404L31.1526 14.4858L27.7727 15.6072L27.5972 18.1539C27.586 18.2316 27.5533 18.3047 27.5029 18.3649C27.4524 18.4251 27.3862 18.47 27.3116 18.4945L24.6915 19.3696C24.6225 19.3922 24.5489 19.3968 24.4776 19.383C24.4064 19.3692 24.3398 19.3374 24.2842 19.2907C24.2286 19.2441 24.1859 19.184 24.1599 19.1162C24.134 19.0484 24.1258 18.9751 24.1361 18.9032L24.2382 16.7862L27.7727 15.6072L17.4916 19.0133C12.4296 20.7059 9.43222 26.3049 11.0776 31.3931C11.8502 33.7959 13.519 35.8085 15.7371 37.0128C17.9552 38.217 20.552 38.5203 22.9879 37.8594C25.4238 37.1986 27.5113 35.6245 28.8167 33.4644C30.122 31.3043 30.5448 28.7242 29.9972 26.2604C29.8013 25.3882 29.4884 24.5466 29.067 23.7582C28.953 23.544 28.8874 23.3074 28.8748 23.0651C28.8622 22.8227 28.903 22.5806 28.9942 22.3557C29.0854 22.1309 29.2248 21.9287 29.4026 21.7636C29.5805 21.5985 29.7924 21.4745 30.0234 21.4002H30.0574C31.1055 21.0831 32.722 20.546 33.7727 20.2002L37.4932 18.8901C37.4932 18.8901 40.7866 17.8054 40.8993 12.5234C40.9065 12.3781 40.8779 12.2333 40.8161 12.1016C40.7542 11.97 40.661 11.8555 40.5446 11.7683C40.4282 11.6811 40.2921 11.6239 40.1484 11.6016C40.0046 11.5793 39.8576 11.5926 39.7202 11.6404Z" stroke="#001863" stroke-width="1.31004" stroke-miterlimit="10"/>
<path d="M16.7605 30.3635C17.4999 30.3635 18.0993 29.7641 18.0993 29.0246C18.0993 28.2852 17.4999 27.6858 16.7605 27.6858C16.0211 27.6858 15.4216 28.2852 15.4216 29.0246C15.4216 29.7641 16.0211 30.3635 16.7605 30.3635Z" fill="#001863"/>
<path d="M20.6251 30.0307C21.3645 30.0307 21.964 29.4313 21.964 28.6919C21.964 27.9525 21.3645 27.353 20.6251 27.353C19.8857 27.353 19.2863 27.9525 19.2863 28.6919C19.2863 29.4313 19.8857 30.0307 20.6251 30.0307Z" fill="#001863"/>
<path d="M24.4923 29.698C25.2317 29.698 25.8312 29.0986 25.8312 28.3591C25.8312 27.6197 25.2317 27.0203 24.4923 27.0203C23.7529 27.0203 23.1534 27.6197 23.1534 28.3591C23.1534 29.0986 23.7529 29.698 24.4923 29.698Z" fill="#001863"/>
</svg>
